<?xml version="1.0" standalone="no"?><!DOCTYPE svg PUBLIC "-//W3C//DTD SVG 1.1//EN" "http://www.w3.org/Graphics/SVG/1.1/DTD/svg11.dtd"><svg t="1715934680852" class="icon" viewBox="0 0 1024 1024" version="1.1" xmlns="http://www.w3.org/2000/svg" p-id="5813" xmlns:xlink="http://www.w3.org/1999/xlink" width="200" height="200"><path d="M172.8 733.418667H37.333333c-13.866667 0-24.533333-10.666667-24.533333-24.533334s10.666667-24.533333 24.533333-24.533333h135.466667c13.866667 0 24.533333 10.666667 24.533333 24.533333s-10.666667 24.533333-24.533333 24.533334zM172.8 540.352H37.333333c-13.866667 0-24.533333-10.666667-24.533333-24.533333 0-13.866667 10.666667-24.533333 24.533333-24.533334h135.466667c13.866667 0 24.533333 10.666667 24.533333 24.533334 0 13.866667-10.666667 24.533333-24.533333 24.533333zM172.8 347.285333H37.333333c-13.866667 0-24.533333-10.666667-24.533333-24.533333s10.666667-24.533333 24.533333-24.533333h135.466667c13.866667 0 24.533333 10.666667 24.533333 24.533333s-10.666667 24.533333-24.533333 24.533333z" fill="#3F3D56" p-id="5814"></path><path d="M840.245333 856.533333h-666.666666c-13.866667 0-24.533333-10.666667-24.533334-24.533333V194.133333c0-13.866667 10.666667-24.533333 24.533334-24.533333h666.666666c13.866667 0 24.533333 10.666667 24.533334 24.533333V832c-1.066667 13.866667-11.733333 24.533333-24.533334 24.533333z m-643.2-48h618.666667V218.666667h-618.666667v589.866666z" fill="#3F3D56" p-id="5815"></path><path d="M311.786667 218.666667c-13.866667 0-24.533333-10.666667-24.533334-24.533334V59.733333c0-13.866667 10.666667-24.533333 24.533334-24.533333s24.533333 10.666667 24.533333 24.533333v134.4c0 13.866667-10.666667 24.533333-24.533333 24.533334zM505.92 218.666667c-13.866667 0-24.533333-10.666667-24.533333-24.533334V59.733333c0-13.866667 10.666667-24.533333 24.533333-24.533333s24.533333 10.666667 24.533333 24.533333v134.4c0 13.866667-10.666667 24.533333-24.533333 24.533334zM701.12 218.666667c-13.866667 0-24.533333-10.666667-24.533333-24.533334V59.733333c0-13.866667 10.666667-24.533333 24.533333-24.533333s24.533333 10.666667 24.533333 24.533333v134.4c0 13.866667-10.666667 24.533333-24.533333 24.533334z" fill="#3F3D56" p-id="5816"></path><path d="M701.12 991.722667c-13.866667 0-24.533333-10.666667-24.533333-24.533334v-133.333333c0-13.866667 10.666667-24.533333 24.533333-24.533333s24.533333 10.666667 24.533333 24.533333v134.4c0 12.8-10.666667 23.466667-24.533333 23.466667zM505.92 991.722667c-13.866667 0-24.533333-10.666667-24.533333-24.533334v-133.333333c0-13.866667 10.666667-24.533333 24.533333-24.533333s24.533333 10.666667 24.533333 24.533333v134.4c0 12.8-10.666667 23.466667-24.533333 23.466667zM311.786667 991.722667c-13.866667 0-24.533333-10.666667-24.533334-24.533334v-133.333333c0-13.866667 10.666667-24.533333 24.533334-24.533333s24.533333 10.666667 24.533333 24.533333v134.4c0 12.8-10.666667 23.466667-24.533333 23.466667z" fill="#3F3D56" p-id="5817"></path><path d="M975.701333 347.285333h-135.466666c-13.866667 0-24.533333-10.666667-24.533334-24.533333s10.666667-24.533333 24.533334-24.533333h135.466666c13.866667 0 24.533333 10.666667 24.533334 24.533333s-10.666667 24.533333-24.533334 24.533333zM975.701333 540.352h-135.466666c-13.866667 0-24.533333-10.666667-24.533334-24.533333 0-13.866667 10.666667-24.533333 24.533334-24.533334h135.466666c13.866667 0 24.533333 10.666667 24.533334 24.533334 0 13.866667-10.666667 24.533333-24.533334 24.533333zM975.701333 733.418667h-135.466666c-13.866667 0-24.533333-10.666667-24.533334-24.533334s10.666667-24.533333 24.533334-24.533333h135.466666c13.866667 0 24.533333 10.666667 24.533334 24.533333s-10.666667 24.533333-24.533334 24.533334z" fill="#3F3D56" p-id="5818"></path><path d="M250.666667 455.466667h92.8v19.2h-68.266667v45.866666h57.6v19.2h-57.6v64h-24.533333zM371.2 455.466667h48c34.133333 0 59.733333 10.666667 59.733333 44.8 0 33.066667-24.533333 46.933333-58.666666 46.933333h-23.466667v56.533333h-24.533333V455.466667z m46.933333 74.666666c24.533333 0 37.333333-9.6 37.333334-28.8s-12.8-25.6-38.4-25.6h-20.266667v54.4h21.333333zM501.333333 530.133333c0-49.066667 32-77.866667 72.533334-77.866666 22.4 0 37.333333 9.6 46.933333 18.133333L608 486.4c-8.533333-7.466667-17.066667-13.866667-32-13.866667-29.866667 0-49.066667 21.333333-49.066667 56.533334S544 586.666667 577.066667 586.666667c9.6 0 19.2-2.133333 24.533333-7.466667V544h-30.933333v-19.2h53.333333v65.066667c-10.666667 9.6-28.8 18.133333-50.133333 18.133333-42.666667-1.066667-72.533333-28.8-72.533334-77.866667zM730.666667 562.133333h-54.4l-12.8 41.6h-24.533334l52.266667-149.333333h28.8l52.266667 149.333333h-26.666667l-14.933333-41.6z m-6.4-18.133333l-6.4-20.266667c-5.333333-16-9.6-33.066667-14.933334-50.133333h-1.066666c-4.266667 17.066667-9.6 34.133333-13.866667 50.133333l-6.4 20.266667h42.666667z" fill="#ED4747" p-id="5819"></path></svg>