<?xml version="1.0" standalone="no"?><!DOCTYPE svg PUBLIC "-//W3C//DTD SVG 1.1//EN" "http://www.w3.org/Graphics/SVG/1.1/DTD/svg11.dtd"><svg t="1715942629300" class="icon" viewBox="0 0 1024 1024" version="1.1" xmlns="http://www.w3.org/2000/svg" p-id="2656" xmlns:xlink="http://www.w3.org/1999/xlink" width="200" height="200"><path d="M85.333333 0h853.333334c46.933333 0 85.333333 38.4 85.333333 85.333333v853.333334c0 46.933333-38.4 85.333333-85.333333 85.333333H85.333333c-46.933333 0-85.333333-38.4-85.333333-85.333333V85.333333c0-46.933333 38.4-85.333333 85.333333-85.333333z" fill="#215EE1" p-id="2657"></path><path d="M678.4 454.4c2.133333-4.266667 2.133333-8.533333 4.266667-12.8 12.8-44.8 25.6-87.466667 40.533333-130.133333 8.533333-19.2 21.333333-29.866667 40.533333-32 12.8-2.133333 27.733333-2.133333 36.266667 10.666666 6.4 8.533333 12.8 12.8 21.333333 14.933334 4.266667 0 8.533333 2.133333 12.8 4.266666 6.4 2.133333 8.533333 0 10.666667-6.4 4.266667-17.066667 10.666667-36.266667 14.933333-53.333333 6.4-19.2 6.4-19.2-12.8-27.733333-8.533333-2.133333-14.933333-4.266667-23.466666 0-12.8 6.4-25.6 4.266667-38.4-8.533334-12.8-12.8-25.6-21.333333-40.533334-25.6-46.933333-17.066667-93.866667-23.466667-142.933333-14.933333-23.466667 4.266667-46.933333 10.666667-66.133333 23.466667-2.133333 2.133333-4.266667 4.266667-8.533334 6.4 27.733333-2.133333 53.333333-2.133333 78.933334 0 17.066667 2.133333 34.133333 8.533333 44.8 23.466666 12.8 14.933333 14.933333 34.133333 17.066666 53.333334 2.133333 25.6-2.133333 51.2-10.666666 76.8-8.533333 25.6-14.933333 53.333333-23.466667 78.933333 0 4.266667-2.133333 6.4 2.133333 8.533333 17.066667 4.266667 29.866667 6.4 42.666667 10.666667zM554.666667 855.466667c12.8 0 23.466667-4.266667 29.866666-17.066667 4.266667-6.4 6.4-14.933333 8.533334-21.333333l57.6-243.2c8.533333-34.133333 14.933333-66.133333 23.466666-100.266667 2.133333-6.4 0-8.533333-6.4-10.666667l-25.6-6.4c-14.933333-4.266667-12.8-4.266667-17.066666 8.533334-38.4 108.8-76.8 219.733333-115.2 328.533333-2.133333 4.266667-2.133333 8.533333-4.266667 14.933333 0 25.6 19.2 46.933333 49.066667 46.933334z" fill="#FFFFFF" p-id="2658"></path><path d="M160 366.933333c0 6.4 2.133333 12.8 2.133333 17.066667 6.4 38.4 12.8 78.933333 17.066667 117.333333 6.4 38.4 10.666667 78.933333 17.066667 117.333334 6.4 40.533333 12.8 78.933333 17.066666 119.466666 4.266667 25.6 8.533333 49.066667 10.666667 74.666667 0 4.266667 2.133333 8.533333 8.533333 6.4 36.266667-6.4 74.666667-12.8 110.933334-17.066667 53.333333-8.533333 104.533333-17.066667 157.866666-25.6 2.133333 0 4.266667-2.133333 6.4-4.266666-2.133333-2.133333-4.266667-4.266667-6.4-4.266667-29.866667 4.266667-57.6 8.533333-85.333333 12.8-57.6 8.533333-117.333333 17.066667-174.933333 27.733333-6.4 0-8.533333 0-8.533334-6.4-4.266667-25.6-6.4-51.2-10.666666-76.8-8.533333-55.466667-17.066667-113.066667-25.6-168.533333-8.533333-61.866667-17.066667-121.6-27.733334-183.466667 0-6.4 2.133333-10.666667 8.533334-10.666666 12.8-2.133333 23.466667-4.266667 34.133333-6.4 46.933333-8.533333 96-14.933333 142.933333-23.466667 42.666667-6.4 83.2-12.8 125.866667-21.333333 38.4-6.4 76.8-12.8 117.333333-19.2 19.2-2.133333 36.266667-6.4 55.466667-8.533334 2.133333 0 4.266667-4.266667 6.4-6.4-2.133333 0-4.266667-2.133333-6.4-2.133333h-2.133333c-23.466667 4.266667-44.8 8.533333-68.266667 10.666667-46.933333 8.533333-96 14.933333-142.933333 23.466666-44.8 6.4-89.6 14.933333-134.4 21.333334-46.933333 8.533333-91.733333 14.933333-138.666667 23.466666-6.4 6.4-8.533333 8.533333-6.4 12.8z m578.133333-66.133333h-4.266666c0 4.266667-2.133333 10.666667-2.133334 14.933333 2.133333 17.066667 6.4 32 8.533334 49.066667 6.4 44.8 14.933333 87.466667 21.333333 132.266667 6.4 44.8 14.933333 87.466667 21.333333 132.266666 4.266667 27.733333 8.533333 55.466667 14.933334 85.333334 0 4.266667 0 6.4-4.266667 8.533333l-117.333333 19.2c-19.2 2.133333-36.266667 6.4-55.466667 8.533333-2.133333 0-2.133333 2.133333-4.266667 4.266667 2.133333 0 4.266667 2.133333 6.4 2.133333 6.4 0 10.666667-2.133333 17.066667-2.133333 42.666667-6.4 87.466667-12.8 130.133333-21.333333 12.8-2.133333 25.6-4.266667 40.533334-6.4-23.466667-142.933333-49.066667-285.866667-72.533334-426.666667z" fill="#FFFFFF" p-id="2659"></path><path d="M584.533333 556.8c4.266667-4.266667 4.266667-8.533333 0-12.8l-38.4-44.8c-36.266667-42.666667-70.4-85.333333-106.666666-128l-6.4-12.8c-2.133333-8.533333 4.266667-17.066667 12.8-19.2 8.533333-4.266667 17.066667 0 25.6 8.533333 34.133333 42.666667 70.4 83.2 104.533333 125.866667 8.533333 10.666667 17.066667 19.2 25.6 29.866667 4.266667-4.266667 4.266667-8.533333 0-12.8-14.933333-17.066667-27.733333-34.133333-42.666667-51.2-27.733333-34.133333-55.466667-68.266667-85.333333-100.266667-10.666667-12.8-27.733333-14.933333-40.533333-2.133333-12.8 10.666667-12.8 25.6-2.133334 40.533333 44.8 53.333333 87.466667 106.666667 132.266667 157.866667 8.533333 4.266667 14.933333 12.8 21.333333 21.333333zM443.733333 469.333333c-2.133333 0-2.133333-2.133333-4.266666-4.266666-14.933333-4.266667-27.733333-10.666667-42.666667-14.933334-4.266667-2.133333-6.4 0-8.533333 4.266667-25.6 64-51.2 125.866667-76.8 187.733333-2.133333 4.266667 0 6.4 4.266666 8.533334 12.8 4.266667 25.6 10.666667 38.4 17.066666 6.4 4.266667 10.666667 2.133333 12.8-6.4 23.466667-61.866667 49.066667-123.733333 74.666667-187.733333 0 2.133333 2.133333 0 2.133333-4.266667z m134.4 87.466667c-10.666667-12.8-19.2-23.466667-27.733333-34.133333-6.4-10.666667-14.933333-17.066667-27.733333-10.666667-2.133333 2.133333-6.4 2.133333-10.666667 2.133333-27.733333 4.266667-53.333333 8.533333-81.066667 14.933334-4.266667 0-8.533333 2.133333-10.666666 6.4-4.266667 14.933333-10.666667 29.866667-17.066667 44.8v6.4c59.733333-10.666667 117.333333-19.2 174.933333-29.866667z m-228.266666-17.066667c-34.133333 6.4-64 10.666667-98.133334 14.933334l6.4 44.8c0 6.4 4.266667 6.4 8.533334 6.4l51.2-6.4c4.266667 0 8.533333-2.133333 10.666666-6.4l19.2-44.8c0-2.133333 0-4.266667 2.133334-8.533334z m356.266666 125.866667c-19.2-12.8-40.533333-23.466667-61.866666-36.266667 0 4.266667 0 8.533333 2.133333 10.666667 4.266667 4.266667 8.533333 8.533333 12.8 10.666667 6.4 4.266667 14.933333 6.4 21.333333 10.666666 10.666667 4.266667 17.066667 12.8 17.066667 25.6 0 2.133333 0 4.266667 2.133333 6.4h2.133334s0-2.133333 2.133333-2.133333c12.8-17.066667 12.8-38.4 8.533333-57.6-6.4-23.466667-17.066667-42.666667-38.4-53.333333-6.4-2.133333-10.666667 0-14.933333 2.133333-4.266667 4.266667-6.4 6.4-6.4 14.933333 4.266667-2.133333 6.4-4.266667 8.533333-6.4 4.266667-4.266667 10.666667-4.266667 14.933334 0 25.6 12.8 38.4 51.2 29.866666 74.666667z m-407.466666 85.333333h2.133333C320 725.333333 341.333333 699.733333 362.666667 674.133333c-2.133333-2.133333-4.266667-2.133333-6.4-4.266666-12.8-4.266667-25.6-10.666667-38.4-14.933334-6.4-2.133333-8.533333 0-8.533334 6.4l-6.4 51.2c-2.133333 12.8-2.133333 25.6-4.266666 38.4z m130.133333-349.866666c-12.8 2.133333-19.2 6.4-23.466667 17.066666-2.133333 8.533333-6.4 14.933333-8.533333 21.333334-2.133333 4.266667-2.133333 6.4 4.266667 8.533333 12.8 4.266667 27.733333 10.666667 40.533333 14.933333 4.266667 2.133333 6.4 0 8.533333-4.266666 2.133333-8.533333 6.4-14.933333 10.666667-23.466667 4.266667-10.666667 2.133333-19.2-6.4-25.6-8.533333-2.133333-17.066667-6.4-25.6-8.533333z m238.933333 140.8l51.2-6.4c2.133333 0 4.266667-4.266667 2.133334-6.4-2.133333-12.8-4.266667-27.733333-6.4-40.533334 0-2.133333-4.266667-4.266667-6.4-4.266666-8.533333 0-17.066667 2.133333-25.6 4.266666-4.266667 0-6.4 2.133333-4.266667 8.533334 8.533333 0 14.933333-2.133333 23.466667-2.133334 2.133333 0 4.266667 2.133333 6.4 2.133334l6.4 32c-12.8 2.133333-25.6 4.266667-38.4 4.266666-6.4 0-10.666667 0-8.533334 8.533334z m10.666667-87.466667c-12.8-4.266667-25.6-8.533333-38.4-10.666667-4.266667-2.133333-4.266667-4.266667-2.133333-8.533333 8.533333-25.6 14.933333-53.333333 23.466666-78.933333 6.4-25.6 12.8-51.2 10.666667-76.8-2.133333-19.2-4.266667-36.266667-17.066667-53.333334-10.666667-14.933333-27.733333-21.333333-44.8-23.466666-25.6-4.266667-51.2-2.133333-78.933333 0 2.133333-2.133333 4.266667-4.266667 8.533333-6.4 19.2-14.933333 42.666667-21.333333 66.133334-23.466667 49.066667-8.533333 96 0 142.933333 14.933333 17.066667 6.4 29.866667 14.933333 40.533333 25.6s23.466667 12.8 38.4 8.533334c8.533333-4.266667 14.933333-2.133333 23.466667 0 19.2 6.4 19.2 6.4 12.8 27.733333-4.266667 17.066667-10.666667 36.266667-14.933333 53.333333-2.133333 6.4-4.266667 8.533333-10.666667 6.4-4.266667-2.133333-8.533333-2.133333-12.8-4.266666-8.533333-2.133333-17.066667-6.4-21.333333-14.933334-8.533333-12.8-23.466667-10.666667-36.266667-10.666666-19.2 2.133333-32 12.8-40.533333 32-17.066667 42.666667-29.866667 85.333333-40.533334 130.133333-6.4 4.266667-6.4 8.533333-8.533333 12.8zM554.666667 855.466667c-29.866667 0-49.066667-19.2-46.933334-46.933334 0-4.266667 2.133333-8.533333 4.266667-14.933333 38.4-108.8 76.8-219.733333 115.2-328.533333 4.266667-12.8 2.133333-12.8 17.066667-8.533334l25.6 6.4c6.4 2.133333 8.533333 4.266667 6.4 10.666667-8.533333 34.133333-14.933333 66.133333-23.466667 100.266667l-57.6 243.2c-2.133333 8.533333-4.266667 14.933333-8.533333 21.333333-8.533333 10.666667-19.2 17.066667-32 17.066667z" fill="#FFFFFF" p-id="2660"></path><path d="M160 366.933333c-2.133333-4.266667 0-6.4 6.4-6.4 46.933333-6.4 91.733333-14.933333 138.666667-23.466666 44.8-6.4 89.6-14.933333 134.4-21.333334 46.933333-8.533333 96-14.933333 142.933333-23.466666 23.466667-4.266667 44.8-8.533333 68.266667-10.666667h2.133333c2.133333 0 4.266667 2.133333 6.4 2.133333l-6.4 6.4c-17.066667 4.266667-36.266667 6.4-55.466667 8.533334-38.4 6.4-76.8 12.8-117.333333 19.2-42.666667 6.4-83.2 12.8-125.866667 21.333333-46.933333 8.533333-96 14.933333-142.933333 23.466667-12.8 2.133333-23.466667 4.266667-34.133333 6.4-6.4 0-8.533333 4.266667-8.533334 10.666666 8.533333 61.866667 19.2 121.6 27.733334 183.466667 8.533333 55.466667 17.066667 113.066667 25.6 168.533333 4.266667 25.6 8.533333 51.2 10.666666 76.8 0 6.4 2.133333 6.4 8.533334 6.4 57.6-8.533333 117.333333-19.2 174.933333-27.733333 29.866667-4.266667 57.6-8.533333 85.333333-12.8 2.133333 0 4.266667 2.133333 6.4 4.266667-2.133333 2.133333-4.266667 4.266667-6.4 4.266666-53.333333 8.533333-104.533333 17.066667-157.866666 25.6-36.266667 6.4-74.666667 10.666667-110.933334 17.066667-6.4 0-8.533333-2.133333-8.533333-6.4-4.266667-25.6-6.4-49.066667-10.666667-74.666667-6.4-40.533333-12.8-78.933333-17.066666-119.466666-6.4-38.4-10.666667-78.933333-17.066667-117.333334l-17.066667-117.333333c0-10.666667-2.133333-17.066667-2.133333-23.466667z m578.133333-66.133333l72.533334 426.666667c-14.933333 2.133333-27.733333 4.266667-40.533334 6.4-42.666667 6.4-85.333333 12.8-130.133333 21.333333-6.4 0-10.666667 2.133333-17.066667 2.133333-2.133333 0-4.266667-2.133333-6.4-2.133333 2.133333-2.133333 2.133333-4.266667 4.266667-4.266667 19.2-4.266667 36.266667-6.4 55.466667-8.533333 38.4-6.4 78.933333-12.8 117.333333-19.2 4.266667 0 6.4-4.266667 4.266667-8.533333-4.266667-27.733333-8.533333-55.466667-14.933334-85.333334-6.4-44.8-14.933333-87.466667-21.333333-132.266666-6.4-44.8-14.933333-87.466667-21.333333-132.266667-2.133333-17.066667-6.4-32-8.533334-49.066667 0-4.266667 2.133333-10.666667 2.133334-14.933333h4.266666z" fill="#FFFFFF" p-id="2661"></path></svg>